<?xml version="1.0" encoding="utf-8"?>
<!-- Generator: Adobe Illustrator 20.1.0, SVG Export Plug-In . SVG Version: 6.00 Build 0)  -->
<svg version="1.1" id="Layer_1" xmlns="http://www.w3.org/2000/svg" xmlns:xlink="http://www.w3.org/1999/xlink" x="0px" y="0px"
	 width="219.1px" height="347.3px" viewBox="0 0 219.1 347.3" style="enable-background:new 0 0 219.1 347.3;" xml:space="preserve"
	>
<style type="text/css">
	.st0{fill:#00ACC8;}
</style>
<g>
	<path class="st0" d="M207.9,147.1c-0.4-2.7-3-4.6-5.7-4.2c-2.7,0.4-4.6,3-4.2,5.7l5.4,34.1l-5.7,1.4c-1.5,0.4-2.8,1.5-3.4,2.9
		c-4.3,10.2-10.5,19.3-18.3,27.1c-7.8,7.8-17,14-27.1,18.3c-2.5,1.1-3.7,4-2.7,6.6c0.8,1.9,2.7,3.1,4.6,3.1c0.6,0,1.3-0.1,1.9-0.4
		c11.4-4.8,21.6-11.7,30.3-20.4c8.2-8.2,14.7-17.6,19.4-28l7.7-2c2.5-0.6,4.1-3.1,3.7-5.6L207.9,147.1z"/>
	<path class="st0" d="M115.9,148.9c-2.8,0-5,2.2-5,5v90.3c0,5.8-0.6,11.6-1.7,17.2c-1.1,5.5-2.8,10.9-5,16c-2.1,5-4.8,9.9-7.9,14.5
		c-3.1,4.5-6.6,8.8-10.4,12.6c-3.9,3.9-8.1,7.4-12.6,10.4c-4.6,3.1-9.4,5.7-14.5,7.9c-5.1,2.2-10.5,3.9-16,5
		c-4,0.8-8.1,1.2-12.2,1.5V153.9c0-5.8,0.6-11.5,1.7-17.2c1.1-5.5,2.8-10.8,5-16c1.1-2.5-0.1-5.5-2.7-6.6c-2.6-1.1-5.5,0.1-6.6,2.7
		c-2.4,5.8-4.3,11.8-5.6,17.9c-1.3,6.3-1.9,12.7-1.9,19.1c0,0,0,0,0,0v180.5c0,2.8,2.2,5,5,5c6.5,0,12.9-0.7,19.2-1.9
		c6.1-1.3,12.1-3.1,17.9-5.6c5.6-2.4,11.1-5.4,16.2-8.8c5-3.4,9.8-7.3,14.1-11.6c4.3-4.3,8.2-9,11.6-14.1c3.4-5.1,6.4-10.5,8.8-16.2
		c2.4-5.7,4.3-11.8,5.6-17.9c1.3-6.3,1.9-12.7,1.9-19.2v-90.3C120.9,151.1,118.7,148.9,115.9,148.9z"/>
	<path class="st0" d="M62.1,126c-2.6-1.1-5.5,0.1-6.6,2.7c-5.2,12.2-4.8,24.8-4.8,25.2v143.2c0,2.8,2.2,5,5,5s5-2.2,5-5l0-143.3
		c0-0.1-0.3-11,4-21.2C65.9,130,64.7,127.1,62.1,126z"/>
	<path class="st0" d="M89.4,137.3c-2.6-0.9-5.5,0.5-6.3,3.2c-2.4,7.1-2.2,13.3-2.2,13.4v109.2c0,2.8,2.2,5,5,5c2.8,0,5-2.2,5-5
		l0-109.4c0,0-0.1-4.7,1.7-10.1C93.4,141,92,138.2,89.4,137.3z"/>
	<path class="st0" d="M148,138.4c-0.2-0.5-0.5-1-0.8-1.5c-0.3-0.5-0.6-1-0.9-1.5c-0.3-0.5-0.6-1-0.9-1.4c-0.3-0.5-0.7-0.9-1-1.4
		c-0.3-0.4-0.7-0.9-1-1.3c-0.4-0.4-0.7-0.9-1.1-1.3c-0.4-0.4-0.8-0.8-1.2-1.3c-0.4-0.4-0.8-0.8-1.2-1.2c-0.4-0.4-0.8-0.7-1.3-1.1
		c-0.4-0.4-0.9-0.7-1.3-1.1c-0.5-0.3-0.9-0.7-1.4-1c-0.5-0.3-1-0.6-1.4-0.9c-0.5-0.3-1-0.6-1.5-0.9c-0.5-0.3-1-0.5-1.5-0.8
		c-0.5-0.2-1-0.5-1.6-0.7c-0.5-0.2-1.1-0.4-1.6-0.6c-0.5-0.2-1.1-0.4-1.7-0.6c-0.6-0.2-1.1-0.3-1.7-0.5c-0.6-0.1-1.1-0.3-1.7-0.4
		c-0.6-0.1-1.2-0.2-1.8-0.3c-2.8-0.4-5.3,1.4-5.7,4.2c-0.4,2.7,1.5,5.3,4.2,5.7c0.4,0.1,0.8,0.1,1.3,0.2c0.4,0.1,0.8,0.2,1.2,0.3
		c0.4,0.1,0.8,0.2,1.2,0.3c0.4,0.1,0.8,0.3,1.2,0.4c0.4,0.1,0.8,0.3,1.1,0.5c0.4,0.2,0.8,0.3,1.1,0.5c0.4,0.2,0.7,0.4,1.1,0.6
		c0.4,0.2,0.7,0.4,1.1,0.6c0.4,0.2,0.7,0.4,1,0.7c0.3,0.2,0.7,0.5,1,0.7c0.3,0.2,0.7,0.5,1,0.8c0.3,0.3,0.6,0.5,0.9,0.8
		c0.3,0.3,0.6,0.6,0.9,0.8c0.3,0.3,0.6,0.6,0.9,0.9c0.3,0.3,0.5,0.6,0.8,0.9c0.3,0.3,0.5,0.7,0.8,1c0.2,0.3,0.5,0.7,0.7,1
		c0.2,0.3,0.5,0.7,0.7,1c0.2,0.4,0.4,0.7,0.6,1.1c0.2,0.4,0.4,0.7,0.6,1.1c0.9,1.8,2.6,2.8,4.5,2.8c0.7,0,1.5-0.2,2.2-0.5
		C148.1,143.9,149.2,140.9,148,138.4z"/>
	<path class="st0" d="M171.8,120c-0.6-0.9-1.1-1.8-1.7-2.6c-0.6-0.9-1.2-1.7-1.8-2.6c-0.6-0.8-1.3-1.7-1.9-2.5
		c-0.7-0.8-1.3-1.6-2.1-2.4c-0.7-0.8-1.4-1.5-2.2-2.3c-0.7-0.7-1.5-1.5-2.3-2.2c-0.8-0.7-1.6-1.4-2.4-2c-0.8-0.7-1.6-1.3-2.5-2
		c-0.8-0.6-1.7-1.2-2.6-1.8c-0.9-0.6-1.8-1.2-2.7-1.7c-0.9-0.5-1.8-1.1-2.7-1.6c-0.9-0.5-1.9-1-2.8-1.4c-1-0.5-1.9-0.9-2.9-1.3
		c-1-0.4-2-0.8-3-1.2c-1-0.4-2-0.7-3-1c-1-0.3-2.1-0.6-3.1-0.9c-1-0.3-2.1-0.5-3.2-0.7c-1.1-0.2-2.1-0.4-3.2-0.6
		c-2.7-0.4-5.3,1.5-5.7,4.2c-0.4,2.7,1.5,5.3,4.2,5.7c0.9,0.1,1.8,0.3,2.7,0.5c0.9,0.2,1.8,0.4,2.7,0.6c0.9,0.2,1.8,0.5,2.6,0.7
		c0.9,0.3,1.7,0.6,2.6,0.9c0.8,0.3,1.7,0.6,2.5,1c0.8,0.3,1.6,0.7,2.5,1.1c0.8,0.4,1.6,0.8,2.4,1.2c0.8,0.4,1.6,0.9,2.3,1.3
		c0.8,0.5,1.5,0.9,2.2,1.4c0.7,0.5,1.5,1,2.2,1.5c0.7,0.5,1.4,1.1,2.1,1.6c0.7,0.6,1.4,1.1,2,1.7c0.7,0.6,1.3,1.2,1.9,1.8
		c0.6,0.6,1.2,1.3,1.8,1.9c0.6,0.7,1.2,1.3,1.7,2c0.6,0.7,1.1,1.4,1.6,2.1c0.5,0.7,1,1.4,1.5,2.2c0.5,0.7,1,1.5,1.4,2.2
		c0.5,0.8,0.9,1.5,1.3,2.3c0.4,0.8,0.8,1.6,1.2,2.4c0.9,1.8,2.6,2.8,4.5,2.8c0.7,0,1.5-0.2,2.2-0.5c2.5-1.2,3.5-4.2,2.3-6.7
		c-0.5-1-0.9-1.9-1.4-2.8C172.9,121.8,172.4,120.9,171.8,120z"/>
	<path class="st0" d="M124.7,63.9c-0.4,2.7,1.5,5.3,4.2,5.7c1.4,0.2,2.8,0.5,4.2,0.7c1.4,0.3,2.8,0.6,4.1,1c1.4,0.4,2.7,0.7,4,1.1
		c1.3,0.4,2.7,0.9,4,1.3c1.3,0.5,2.6,1,3.9,1.5c1.3,0.5,2.5,1.1,3.8,1.7c1.2,0.6,2.5,1.2,3.7,1.9c1.2,0.7,2.4,1.3,3.6,2.1
		c1.2,0.7,2.3,1.5,3.5,2.2c1.1,0.8,2.2,1.6,3.3,2.4c1.1,0.8,2.2,1.7,3.2,2.5c1.1,0.9,2.1,1.8,3.1,2.7c1,0.9,2,1.9,3,2.8
		c1,1,1.9,2,2.8,3c0.9,1,1.8,2,2.7,3.1c0.9,1.1,1.7,2.1,2.5,3.2c0.8,1.1,1.6,2.2,2.4,3.3c0.8,1.1,1.5,2.3,2.2,3.5
		c0.7,1.2,1.4,2.4,2.1,3.6c0.7,1.2,1.3,2.4,1.9,3.7c0.9,1.8,2.6,2.8,4.5,2.8c0.7,0,1.5-0.2,2.2-0.5c2.5-1.2,3.5-4.2,2.3-6.7
		c-0.7-1.4-1.4-2.8-2.1-4.1c-0.7-1.4-1.5-2.7-2.3-4c-0.8-1.3-1.6-2.6-2.5-3.9c-0.9-1.3-1.7-2.5-2.7-3.7c-0.9-1.2-1.9-2.4-2.8-3.6
		c-1-1.2-2-2.3-3-3.5c-1-1.1-2.1-2.2-3.2-3.3c-1.1-1.1-2.2-2.1-3.3-3.2c-1.1-1-2.3-2-3.5-3c-1.2-1-2.4-1.9-3.6-2.8
		c-1.2-0.9-2.5-1.8-3.7-2.7c-1.3-0.9-2.6-1.7-3.9-2.5c-1.3-0.8-2.6-1.6-4-2.3c-1.3-0.7-2.7-1.4-4.1-2.1c-1.4-0.7-2.8-1.3-4.2-1.9
		c-1.4-0.6-2.9-1.2-4.3-1.7c-1.5-0.5-2.9-1-4.4-1.5c-1.5-0.5-3-0.9-4.5-1.3c-1.5-0.4-3.1-0.7-4.6-1.1c-1.5-0.3-3.1-0.6-4.7-0.8
		C127.7,59.3,125.1,61.2,124.7,63.9z"/>
	<path class="st0" d="M22.4,101.9c0.2-0.3,0.3-0.6,0.5-0.8c1.7-2.7,1-6.2-1.6-8.1c-0.7-0.5-1.5-1.1-2.2-1.7
		c-0.5-0.4-1.1-0.9-1.6-1.3c-1.1-1-2.5-1.4-3.9-1.4c-2,0-4,1-5.1,2.8c0,0.1-0.1,0.1-0.1,0.2c-0.4,0.7-0.8,1.5-1.2,2.2
		c-1.2,2.4-0.6,5.3,1.3,7.1c0.6,0.5,1.2,1.1,1.9,1.6c0.1,0,0.5,0.4,0.9,0.7c0.5,0.4,1.2,0.9,2,1.4c1,0.7,2.2,1,3.3,1
		c2.1,0,4.1-1.1,5.2-3C22.1,102.4,22.3,102.2,22.4,101.9z"/>
	<path class="st0" d="M24.6,88.7c1,0.7,2.2,1.1,3.4,1.1c1.7,0,3.5-0.8,4.7-2.2c0.9-1.1,1.9-2.2,2.9-3.4c1.2-1.3,2.4-2.5,3.5-3.7
		c2-2.1,2.3-5.2,0.7-7.6c-0.4-0.6-0.9-1.3-1.3-2.1c-1.1-1.7-3.1-5.2-4.9-9.9c-0.9-2.2-1.8-5-2.5-8.3c-0.6-2.8-3.1-4.8-5.9-4.8
		c-0.3,0-0.6,0-0.9,0.1c-2.2,0.3-4.6,0.9-7.2,1.7c-3.7,1.2-6.7,2.7-9.2,4.2c-2.2,1.3-3.4,3.9-2.8,6.4c0.2,1,0.5,2.1,0.9,3.3
		c0.4,1.4,2.4,7.6,7.5,14.4C17.1,82.7,21.1,86.2,24.6,88.7z M19.7,57.5c1.2-0.4,2.5-0.7,3.7-1c0.6,2.5,1.4,5,2.4,7.4
		c1.5,4,3.4,7.7,5.6,11.3c0.2,0.3,0.3,0.5,0.5,0.8c-0.8,0.9-1.7,1.8-2.5,2.6c-0.6,0.7-1.2,1.3-1.7,2c-2.8-2.3-5.4-4.8-7.5-7.7
		c-3.9-5.2-5.6-10-6.2-11.8c-0.1-0.3-0.2-0.6-0.3-0.9C15.6,59,17.6,58.2,19.7,57.5z"/>
	<path class="st0" d="M83.6,33.9c2.9,4.1,4.7,7.6,5.6,9.5c0.4,0.8,0.7,1.5,1,2.2c1,2.3,3.2,3.7,5.6,3.7c0.4,0,0.8,0,1.2-0.1
		c1.6-0.3,3.3-0.6,5-0.9c1.5-0.2,3-0.4,4.4-0.6c3.2-0.4,5.5-3.1,5.4-6.2c-0.2-4.3-0.9-9.5-2.9-15.1c-2.9-8-7-13-7.9-14.2
		c-0.8-0.9-1.6-1.8-2.3-2.6c-1.1-1.2-2.7-1.8-4.2-1.8c-0.9,0-1.8,0.2-2.6,0.6c-2.6,1.3-5.5,3-8.5,5.4c-2.1,1.7-3.9,3.5-5.4,5.1
		c-2.1,2.3-1.9,5.9,0.3,8.2C80.4,29.7,82.2,32,83.6,33.9z M88.4,20.4c1.7-1.4,3.5-2.6,5.5-3.6c0.2,0.2,0.4,0.5,0.6,0.8
		c1.2,1.5,4.3,5.5,6.5,11.7c1.2,3.4,2,6.9,2.3,10.5c-0.8,0.1-1.7,0.2-2.6,0.4c-1.2,0.2-2.4,0.4-3.6,0.6c-0.1-0.3-0.3-0.6-0.4-0.9
		c-1.8-3.7-3.9-7.4-6.4-10.8c-1.5-2.1-3.1-4.1-4.9-6C86.4,22.1,87.3,21.2,88.4,20.4z"/>
	<path class="st0" d="M42.8,67.3c0.1,0.2,0.2,0.4,0.3,0.5c1.1,1.8,3.1,2.8,5.1,2.8c1.3,0,2.5-0.4,3.6-1.2c0.9-0.7,1.8-1.3,2.8-2
		c0.5-0.4,1.1-0.8,1.6-1.1c3.2-2.2,6.7-4.3,10.6-6.4c0.1-0.1,0.3-0.1,0.4-0.2c1.6-0.8,5-2.5,9.2-4.2c1.2-0.5,2.7-1.1,4.3-1.7
		c3.3-1.2,5-5,3.5-8.1c-0.1-0.2-0.2-0.4-0.3-0.6c-0.8-1.7-2.8-5.5-6.2-9.9c-4.9-6.2-10-9.8-11.6-10.9c-5.9-4-11-5.7-12.2-6.1
		c-3-1-5.8-1.5-8.2-1.8c-0.3,0-0.5,0-0.8,0c-2.3,0-4.4,1.3-5.4,3.4c-1,2.2-2.1,4.8-2.9,7.8c-0.3,1.2-1.7,6.5-1.6,13.6
		c0,2,0.3,8.2,2.8,15.7C39.5,61.6,41.5,65.2,42.8,67.3z M44.7,29.7c0.4-1.6,1-3.2,1.7-4.8c1.7,0.3,3.3,0.7,4.9,1.2
		c1.5,0.5,5.6,2,10.1,5.1c2,1.4,6,4.4,9.7,9.2c1.6,2,3.1,4.3,4.3,6.5c-0.8,0.3-1.5,0.6-2.2,0.9c-5,2-8.8,4-9.9,4.5L63,52.5
		c-3.9,2-7.6,4.3-11.4,6.9c-0.4,0.3-0.8,0.5-1.2,0.8l-0.6,0.4c-0.3,0.2-0.6,0.4-0.9,0.6c-1.2-2.3-2.3-4.7-3.1-7.2
		c-1.9-5.8-2.3-10.8-2.4-13.2C43.3,35.4,44.3,31.2,44.7,29.7z"/>
	<path class="st0" d="M117.2,41.2c0.1,3.2,2.7,5.7,5.9,5.8c0.3,0,0.7,0,1,0c0.3,0,0.6,0,0.9,0c0.1,0,0.2,0,0.3,0c3.3,0,6-2.7,6-6
		c0-1-0.1-1.9-0.1-2.5c0-0.5-0.1-1.1-0.1-1.1c-0.1-0.9-0.2-1.7-0.3-2.5c-0.4-2.6-2.5-4.7-5.2-5c-0.8-0.1-1.6-0.2-2.5-0.2
		c-0.1,0-0.1,0-0.2,0c-0.1,0-0.2,0-0.3,0c-3.5,0-6.3,3.2-5.8,6.7c0.1,0.7,0.2,1.3,0.2,2C117.1,39.4,117.1,40.3,117.2,41.2z"/>
</g>
</svg>
